# xmcd
#
# Track frame offsets:
#	183
#	32328
#	79360
#	117688
#	183623
#	219430
#
# Disc length: 3423
#
# Revision: 2
# Processed by: cddbd v1.5.1PL0 Copyright (c) Steve Scherf et al.
# Submitted via: DiscPlay 4.0.3
# Normalized: r1:TDELIM( - )
#
DISCID=510d5d06
DTITLE=Santana - Latin Rock Fusions
DYEAR=1900
DGENRE=
TTITLE0=Everyday I Have The Blues - Chatman
TTITLE1=La Puesta Del Sol - Weiss
TTITLE2=Jam in E - Cucio
TTITLE3=Santana Jam - Santana
TTITLE4=Jam In G.Minor - Curcio
TTITLE5=Jammin Home - Curcio
EXTD=
EXTT0=
EXTT1=
EXTT2=
EXTT3=
EXTT4=
EXTT5=
PLAYORDER=
